<svg width="24" height="24" viewBox="0 0 24 24" fill="none" xmlns="http://www.w3.org/2000/svg">
<g clip-path="url(#clip0_1802_559)">
<path fill-rule="evenodd" clip-rule="evenodd" d="M7.23223 21.4246C6.64645 22.0104 5.6967 22.0104 5.11091 21.4246C4.64928 20.963 4.55144 20.2753 4.81739 19.7179L4.69633 19.5968C4.13889 19.8628 3.45122 19.7649 2.98959 19.3033C2.4038 18.7175 2.4038 17.7678 2.98959 17.182C3.57538 16.5962 4.52512 16.5962 5.11091 17.182C5.23507 17.3061 5.33291 17.4466 5.40443 17.5966L7.23034 15.7699C7.42169 16.0384 7.63781 16.2947 7.87868 16.5355C8.1198 16.7767 8.37633 16.993 8.64511 17.1845L6.8186 19.0102C6.96817 19.0817 7.10834 19.1794 7.23223 19.3033C7.81802 19.8891 7.81802 20.8388 7.23223 21.4246ZM12.4008 3.52957L12.4142 3.51472C13.5858 2.34314 16.435 3.29289 18.7782 5.63604C21.1213 7.97918 22.0711 10.8284 20.8995 12L16.364 16.5355C14.0208 18.8787 10.2218 18.8787 7.87868 16.5355C5.53553 14.1924 5.53553 10.3934 7.87868 8.05025L12.4008 3.52957ZM12.4142 3.51472C11.2426 4.68629 12.1924 7.53553 14.5355 9.87868C16.8787 12.2218 19.7279 13.1716 20.8995 12C22.0711 10.8284 21.1213 7.97918 18.7782 5.63604C16.435 3.29289 13.5858 2.34314 12.4142 3.51472ZM15.2426 6.34314C14.8521 6.73367 15.1687 7.68342 15.9497 8.46446C16.7308 9.24551 17.6805 9.56209 18.0711 9.17157C18.4616 8.78105 18.145 7.8313 17.364 7.05025C16.5829 6.2692 15.6332 5.95262 15.2426 6.34314Z" stroke="black" stroke-linecap="round"/>
</g>
<defs>
<clipPath id="clip0_1802_559">
<rect width="24" height="24" fill="white"/>
</clipPath>
</defs>
</svg>
