<svg width="24" height="24" viewBox="0 0 24 24" fill="none" xmlns="http://www.w3.org/2000/svg">
<path fill-rule="evenodd" clip-rule="evenodd" d="M18.2141 14.4801C18.3605 14.3336 18.598 14.3336 18.7444 14.4801C18.8909 14.6265 18.8909 14.864 18.7444 15.0104L18.4793 15.2756C18.1257 17.0433 17.6838 18.1924 17.1534 18.7227C16.3579 19.5182 15.234 19.455 14.5018 18.7227C13.7696 17.9905 13.7063 16.8666 14.5018 16.0711C15.0321 15.5407 16.1812 15.0988 17.9489 14.7452L18.2141 14.4801ZM5.19482 14.3303C5.29838 14.1509 5.52772 14.0894 5.70708 14.193L6.03184 14.3805C7.83088 14.2645 9.05516 14.394 9.70468 14.769C10.679 15.3315 10.9087 16.4335 10.391 17.3303C9.87321 18.2271 8.80396 18.5791 7.82968 18.0166C7.18016 17.6416 6.45588 16.646 5.65684 15.03L5.33208 14.8425C5.15272 14.739 5.09127 14.5096 5.19482 14.3303ZM12.7929 6.70711C13 6.70711 13.1679 6.875 13.1679 7.08211V7.45711C14.1679 8.95711 14.6679 10.0821 14.6679 10.8321C14.6679 11.9571 13.8284 12.7071 12.7929 12.7071C11.7574 12.7071 10.9179 11.9571 10.9179 10.8321C10.9179 10.0821 11.4179 8.95711 12.4179 7.45711V7.08211C12.4179 6.875 12.5858 6.70711 12.7929 6.70711ZM17.8467 5.7209C18.8469 5.45289 19.8519 5.96006 20.143 7.04673C20.3372 7.77117 20.1454 8.98725 19.5677 10.695L19.6647 11.0572C19.7183 11.2572 19.5996 11.4629 19.3996 11.5165C19.1995 11.5701 18.9939 11.4513 18.9403 11.2513L18.8432 10.8891C17.4891 9.699 16.7149 8.74174 16.5208 8.0173C16.2297 6.93063 16.8464 5.98892 17.8467 5.7209ZM7.49439 3.79713L7.56936 3.80933C7.76941 3.86294 7.88813 4.06856 7.83452 4.26861L7.73747 4.63084C8.31516 6.33854 8.50695 7.55462 8.31284 8.27906C8.02167 9.36573 7.01669 9.8729 6.01644 9.60489C5.01619 9.33687 4.39945 8.39516 4.69062 7.30849C4.88473 6.58405 5.65887 5.62679 7.01302 4.43672L7.11008 4.0745C7.16368 3.87445 7.36931 3.75573 7.56936 3.80933L7.49439 3.79713Z" stroke="black" stroke-linecap="round"/>
</svg>
