<svg width="71" height="71" viewBox="0 0 71 71" fill="none" xmlns="http://www.w3.org/2000/svg">
<circle cx="35.5" cy="35.5" r="27" fill="#F8F8F6" stroke="#1BD15D" stroke-width="2"/>
<path fill-rule="evenodd" clip-rule="evenodd" d="M26.1935 25.3387C25.089 25.3387 24.1935 26.2341 24.1935 27.3387V29.7937C24.1935 30.6276 24.7039 31.3423 25.4293 31.6425L26.3692 42.4194C26.5043 43.9694 27.802 45.1588 29.3578 45.1588H42.0093C43.5651 45.1588 44.8628 43.9694 44.9979 42.4194L45.9378 31.6425C46.6632 31.3423 47.1736 30.6276 47.1736 29.7937V27.3387C47.1736 26.2341 46.2782 25.3387 45.1736 25.3387H26.1935ZM43.917 31.7937H27.4501L28.3616 42.2457C28.4067 42.7623 28.8392 43.1588 29.3578 43.1588H42.0093C42.5279 43.1588 42.9605 42.7623 43.0055 42.2457L43.917 31.7937ZM26.1935 27.3387H45.1736V29.7937H26.1935V27.3387ZM35.6836 34.2488C36.2359 34.2488 36.6836 34.6965 36.6836 35.2488V36.4763H38.0147C38.567 36.4763 39.0147 36.924 39.0147 37.4763C39.0147 38.0285 38.567 38.4763 38.0147 38.4763H36.6836V39.7038C36.6836 40.2561 36.2359 40.7038 35.6836 40.7038C35.1313 40.7038 34.6836 40.2561 34.6836 39.7038V38.4763H33.3524C32.8002 38.4763 32.3524 38.0285 32.3524 37.4763C32.3524 36.924 32.8002 36.4763 33.3524 36.4763H34.6836V35.2488C34.6836 34.6965 35.1313 34.2488 35.6836 34.2488Z" fill="#1BD15D"/>
</svg>
