<svg width="56" height="56" viewBox="0 0 56 56" fill="none" xmlns="http://www.w3.org/2000/svg">
<path d="M56 28C56 43.464 43.464 56 28 56C12.536 56 0 43.464 0 28C0 12.536 12.536 0 28 0C43.464 0 56 12.536 56 28Z" fill="#FFCCC5"/>
<path fill-rule="evenodd" clip-rule="evenodd" d="M25.6832 20C24.7655 20 23.9655 20.6246 23.7429 21.5149L23.3412 23.122H21C20.4477 23.122 20 23.5697 20 24.122C20 24.6742 20.4477 25.122 21 25.122H21.6299L22.2113 33.2625C22.3235 34.8324 23.6298 36.0488 25.2037 36.0488H30.8451C32.419 36.0488 33.7253 34.8324 33.8375 33.2625L34.4189 25.122H35.0488C35.6011 25.122 36.0488 24.6742 36.0488 24.122C36.0488 23.5697 35.6011 23.122 35.0488 23.122H32.7076L32.3058 21.5149C32.0833 20.6246 31.2833 20 30.3656 20H25.6832ZM30.646 23.122L30.3656 22H25.6832L25.4027 23.122H30.646ZM23.635 25.122H32.4138L31.8425 33.12C31.8052 33.6433 31.3697 34.0488 30.8451 34.0488H25.2037C24.6791 34.0488 24.2436 33.6433 24.2062 33.12L23.635 25.122ZM26.4634 26.2439C27.0157 26.2439 27.4634 26.6916 27.4634 27.2439V31.9268C27.4634 32.4791 27.0157 32.9268 26.4634 32.9268C25.9111 32.9268 25.4634 32.4791 25.4634 31.9268V27.2439C25.4634 26.6916 25.9111 26.2439 26.4634 26.2439ZM30.5853 27.2439C30.5853 26.6916 30.1376 26.2439 29.5853 26.2439C29.033 26.2439 28.5853 26.6916 28.5853 27.2439V31.9268C28.5853 32.4791 29.033 32.9268 29.5853 32.9268C30.1376 32.9268 30.5853 32.4791 30.5853 31.9268V27.2439Z" fill="#D21C1C"/>
</svg>
