<svg width="56" height="56" viewBox="0 0 56 56" fill="none" xmlns="http://www.w3.org/2000/svg">
<path d="M56 28C56 43.464 43.464 56 28 56C12.536 56 0 43.464 0 28C0 12.536 12.536 0 28 0C43.464 0 56 12.536 56 28Z" fill="#FFCCC5"/>
<path fill-rule="evenodd" clip-rule="evenodd" d="M24.4694 22.348C23.8836 21.7622 22.9339 21.7622 22.3481 22.348C21.7623 22.9338 21.7623 23.8836 22.3481 24.4693L25.8955 28.0167L22.348 31.5642C21.7623 32.15 21.7623 33.0997 22.348 33.6855C22.9338 34.2713 23.8836 34.2713 24.4694 33.6855L28.0168 30.1381L31.5642 33.6855C32.15 34.2713 33.0997 34.2713 33.6855 33.6855C34.2713 33.0997 34.2713 32.1499 33.6855 31.5641L30.1381 28.0167L33.6855 24.4694C34.2713 23.8836 34.2713 22.9339 33.6855 22.3481C33.0997 21.7623 32.1499 21.7623 31.5642 22.3481L28.0168 25.8954L24.4694 22.348Z" fill="#D21C1C"/>
</svg>
