<svg width="17" height="17" viewBox="0 0 17 17" fill="none" xmlns="http://www.w3.org/2000/svg">
<path fill-rule="evenodd" clip-rule="evenodd" d="M8.05576 0C8.60805 0 9.05576 0.447715 9.05576 1V2.41115C9.05576 2.96344 8.60805 3.41115 8.05576 3.41115C7.50348 3.41115 7.05576 2.96344 7.05576 2.41115V1C7.05576 0.447715 7.50348 0 8.05576 0ZM8.05576 12.7004C8.60805 12.7004 9.05576 13.1481 9.05576 13.7004V15.1115C9.05576 15.6638 8.60805 16.1115 8.05576 16.1115C7.50348 16.1115 7.05576 15.6638 7.05576 15.1115V13.7004C7.05576 13.1481 7.50348 12.7004 8.05576 12.7004ZM15.1115 9.05576C15.6638 9.05576 16.1115 8.60804 16.1115 8.05576C16.1115 7.50347 15.6638 7.05576 15.1115 7.05576H13.7004C13.1481 7.05576 12.7004 7.50347 12.7004 8.05576C12.7004 8.60804 13.1481 9.05576 13.7004 9.05576H15.1115ZM3.41115 8.05576C3.41115 8.60804 2.96344 9.05576 2.41115 9.05576H1C0.447715 9.05576 -2.23517e-08 8.60804 0 8.05576C2.23517e-08 7.50347 0.447715 7.05576 1 7.05576H2.41115C2.96344 7.05576 3.41115 7.50347 3.41115 8.05576ZM13.752 3.7737C14.1425 3.38318 14.1425 2.75002 13.752 2.35949C13.3615 1.96897 12.7283 1.96897 12.3378 2.35949L11.3399 3.35733C10.9494 3.74785 10.9494 4.38101 11.3399 4.77154C11.7305 5.16206 12.3636 5.16206 12.7542 4.77154L13.752 3.7737ZM4.77152 11.34C5.16204 11.7305 5.16204 12.3637 4.77152 12.7542L3.77368 13.752C3.38316 14.1426 2.75 14.1426 2.35947 13.752C1.96895 13.3615 1.96895 12.7284 2.35947 12.3378L3.35731 11.34C3.74783 10.9495 4.381 10.9495 4.77152 11.34ZM12.3378 13.752C12.7283 14.1425 13.3615 14.1425 13.752 13.752C14.1425 13.3615 14.1425 12.7283 13.752 12.3378L12.7542 11.34C12.3636 10.9495 11.7305 10.9495 11.3399 11.34C10.9494 11.7305 10.9494 12.3637 11.3399 12.7542L12.3378 13.752ZM4.77152 4.77152C4.38099 5.16204 3.74783 5.16204 3.35731 4.77152L2.35947 3.77369C1.96895 3.38316 1.96895 2.75 2.35947 2.35947C2.75 1.96895 3.38316 1.96895 3.77368 2.35947L4.77152 3.35731C5.16204 3.74783 5.16204 4.381 4.77152 4.77152ZM5.52788 8.05576C5.52788 6.65965 6.65965 5.52788 8.05576 5.52788C9.45187 5.52788 10.5836 6.65965 10.5836 8.05576C10.5836 9.45187 9.45187 10.5836 8.05576 10.5836C6.65965 10.5836 5.52788 9.45187 5.52788 8.05576ZM8.05576 3.52788C5.55508 3.52788 3.52788 5.55508 3.52788 8.05576C3.52788 10.5564 5.55508 12.5836 8.05576 12.5836C10.5564 12.5836 12.5836 10.5564 12.5836 8.05576C12.5836 5.55508 10.5564 3.52788 8.05576 3.52788Z" fill="#6F6F6F"/>
</svg>
