<svg width="17" height="17" viewBox="0 0 17 17" fill="none" xmlns="http://www.w3.org/2000/svg">
<path fill-rule="evenodd" clip-rule="evenodd" d="M3.10023 2.55771C3.26863 2.21622 3.61635 2 3.9971 2H7.01367V3.55556H2.60814L3.10023 2.55771ZM9.01367 3.55556V2H12.0303C12.4111 2 12.7588 2.21622 12.9272 2.55771L13.4193 3.55556H9.01367ZM2 5.55556V13.2222C2 13.7745 2.44772 14.2222 3 14.2222H13.0274C13.5797 14.2222 14.0274 13.7745 14.0274 13.2222V11.8889C14.0274 11.3366 13.5797 10.8889 13.0274 10.8889H8.65112L9.60236 11.8533C9.99018 12.2465 9.98581 12.8797 9.5926 13.2675C9.1994 13.6553 8.56625 13.651 8.17842 13.2578L5.54829 10.5911L4.85569 9.88889L5.54829 9.18668L8.17842 6.52001C8.56625 6.1268 9.1994 6.12243 9.5926 6.51026C9.98581 6.89808 9.99018 7.53123 9.60236 7.92444L8.65112 8.88889H13.0274C14.6843 8.88889 16.0274 10.232 16.0274 11.8889V13.2222C16.0274 14.8791 14.6843 16.2222 13.0274 16.2222H3C1.34314 16.2222 0 14.8791 0 13.2222V5.0219C0 4.56173 0.105859 4.10773 0.309387 3.69502L1.30649 1.67312C1.8117 0.648666 2.85484 0 3.9971 0H12.0303C13.1726 0 14.2157 0.648665 14.7209 1.67312L15.718 3.69502C15.9215 4.10773 16.0274 4.56173 16.0274 5.02189V7.22222C16.0274 7.77451 15.5797 8.22222 15.0274 8.22222C14.4751 8.22222 14.0274 7.77451 14.0274 7.22222V5.55556H2Z" fill="#6F6F6F"/>
</svg>
