<svg width="16" height="18" viewBox="0 0 16 18" fill="none" xmlns="http://www.w3.org/2000/svg">
<path fill-rule="evenodd" clip-rule="evenodd" d="M6 4C6 2.89543 6.89543 2 8 2C9.10457 2 10 2.89543 10 4C10 5.10457 9.10457 6 8 6C6.89543 6 6 5.10457 6 4ZM8 0C5.79086 0 4 1.79086 4 4C4 6.20914 5.79086 8 8 8C10.2091 8 12 6.20914 12 4C12 1.79086 10.2091 0 8 0ZM8.26923 11C11.1867 11 13.5949 13.1801 13.9538 16H2.04615C2.40506 13.1801 4.81332 11 7.73077 11H8.26923ZM7.73077 9C3.46118 9 0 12.4612 0 16.7308C0 17.4317 0.568253 18 1.26923 18H14.7308C15.4317 18 16 17.4317 16 16.7308C16 12.4612 12.5388 9 8.26923 9H7.73077Z" fill="#9B9B9B"/>
</svg>
