<svg width="56" height="56" viewBox="0 0 56 56" fill="none" xmlns="http://www.w3.org/2000/svg">
<path d="M56 28C56 43.464 43.464 56 28 56C12.536 56 0 43.464 0 28C0 12.536 12.536 0 28 0C43.464 0 56 12.536 56 28Z" fill="#D2D2D2"/>
<path d="M22 22V34.1315C22 34.9302 22.8901 35.4066 23.5547 34.9635L27.4453 32.3698C27.7812 32.1459 28.2188 32.1459 28.5547 32.3698L32.4453 34.9635C33.1099 35.4066 34 34.9302 34 34.1315V22C34 20.8954 33.1046 20 32 20H24C22.8954 20 22 20.8954 22 22Z" stroke="black" stroke-width="2"/>
</svg>
