<svg width="20" height="20" viewBox="0 0 20 20" fill="none" xmlns="http://www.w3.org/2000/svg">
<g clip-path="url(#clip0_41_403)">
<path d="M14.7969 13.8475L18.2408 17.4159L17.103 18.595L13.6599 15.0259C12.3787 16.0902 10.7852 16.6691 9.14328 16.6667C5.14854 16.6667 1.90643 13.3067 1.90643 9.16669C1.90643 5.02669 5.14854 1.66669 9.14328 1.66669C13.138 1.66669 16.3801 5.02669 16.3801 9.16669C16.3825 10.8684 15.8239 12.5198 14.7969 13.8475ZM13.1838 13.2292C14.2043 12.1416 14.7742 10.6837 14.7719 9.16669C14.7719 5.94335 12.2527 3.33335 9.14328 3.33335C6.03304 3.33335 3.51462 5.94335 3.51462 9.16669C3.51462 12.3892 6.03304 15 9.14328 15C10.6071 15.0024 12.0138 14.4118 13.0632 13.3542L13.1838 13.2292Z" fill="#9B9B9B"/>
</g>
<defs>
<clipPath id="clip0_41_403">
<rect width="19.2982" height="20" fill="white" transform="translate(0.298248)"/>
</clipPath>
</defs>
</svg>
