<svg width="107" height="98" viewBox="0 0 107 98" fill="none" xmlns="http://www.w3.org/2000/svg">
<g filter="url(#filter0_d_143_375)">
<rect x="24.4" y="16" width="58.24" height="56" rx="18" fill="#1BD15D"/>
</g>
<path fill-rule="evenodd" clip-rule="evenodd" d="M44.8333 35.6667C44.281 35.6667 43.8333 36.1144 43.8333 36.6667V41.3333H41.8333V36.6667C41.8333 35.0098 43.1765 33.6667 44.8333 33.6667H50.8333V35.6667H44.8333ZM63.1666 36.6667C63.1666 36.1144 62.7189 35.6667 62.1666 35.6667L56.1666 35.6667V33.6667H62.1666C63.8235 33.6667 65.1666 35.0098 65.1666 36.6667V41.3333H63.1666V36.6667ZM63.1666 51.3333C63.1666 51.8856 62.7189 52.3333 62.1666 52.3333H56.1666V54.3333H62.1666C63.8235 54.3333 65.1666 52.9902 65.1666 51.3333V46.6667L63.1666 46.6667V51.3333ZM43.8333 51.3333C43.8333 51.8856 44.281 52.3333 44.8333 52.3333L50.8333 52.3333L50.8333 54.3333L44.8333 54.3333C43.1765 54.3333 41.8333 52.9902 41.8333 51.3333V46.6667H43.8333L43.8333 51.3333ZM54.5 40C54.5 39.4477 54.0523 39 53.5 39C52.9477 39 52.5 39.4477 52.5 40V48C52.5 48.5523 52.9477 49 53.5 49C54.0523 49 54.5 48.5523 54.5 48V40ZM58.8333 39C59.3856 39 59.8333 39.4477 59.8333 40V48C59.8333 48.5523 59.3856 49 58.8333 49C58.281 49 57.8333 48.5523 57.8333 48V40C57.8333 39.4477 58.281 39 58.8333 39ZM49.1666 40C49.1666 39.4477 48.7189 39 48.1666 39C47.6144 39 47.1666 39.4477 47.1666 40L47.1666 48C47.1666 48.5523 47.6144 49 48.1666 49C48.7189 49 49.1666 48.5523 49.1666 48L49.1666 40Z" fill="#FFF7F7"/>
<defs>
<filter id="filter0_d_143_375" x="0.400024" y="0" width="106.24" height="104" filterUnits="userSpaceOnUse" color-interpolation-filters="sRGB">
<feFlood flood-opacity="0" result="BackgroundImageFix"/>
<feColorMatrix in="SourceAlpha" type="matrix" values="0 0 0 0 0 0 0 0 0 0 0 0 0 0 0 0 0 0 127 0" result="hardAlpha"/>
<feOffset dy="8"/>
<feGaussianBlur stdDeviation="12"/>
<feColorMatrix type="matrix" values="0 0 0 0 0.105882 0 0 0 0 0.819608 0 0 0 0 0.364706 0 0 0 0.2 0"/>
<feBlend mode="normal" in2="BackgroundImageFix" result="effect1_dropShadow_143_375"/>
<feBlend mode="normal" in="SourceGraphic" in2="effect1_dropShadow_143_375" result="shape"/>
</filter>
</defs>
</svg>
