<svg width="56" height="56" viewBox="0 0 56 56" fill="none" xmlns="http://www.w3.org/2000/svg">
<path d="M56 28C56 43.464 43.464 56 28 56C12.536 56 0 43.464 0 28C0 12.536 12.536 0 28 0C43.464 0 56 12.536 56 28Z" fill="#1BD15D"/>
<path fill-rule="evenodd" clip-rule="evenodd" d="M29.5168 21.5C29.5168 20.6716 28.8453 20 28.0168 20C27.1884 20 26.5168 20.6716 26.5168 21.5V26.5168H21.5C20.6716 26.5168 20 27.1884 20 28.0168C20 28.8452 20.6716 29.5168 21.5 29.5168H26.5168V34.5336C26.5168 35.362 27.1884 36.0336 28.0168 36.0336C28.8453 36.0336 29.5168 35.362 29.5168 34.5336V29.5168H34.5336C35.362 29.5168 36.0336 28.8452 36.0336 28.0168C36.0336 27.1884 35.362 26.5168 34.5336 26.5168H29.5168V21.5Z" fill="#FFF3F3"/>
</svg>
