<svg width="22" height="18" viewBox="0 0 22 18" fill="none" xmlns="http://www.w3.org/2000/svg">
<path fill-rule="evenodd" clip-rule="evenodd" d="M9.07037 0C8.06731 0 7.13061 0.501303 6.57422 1.3359L5.76168 2.5547C5.57622 2.8329 5.26399 3 4.92963 3H3C1.34315 3 0 4.34315 0 6V15C0 16.6569 1.34315 18 3 18H19C20.6569 18 22 16.6569 22 15V6C22 4.34315 20.6569 3 19 3H17.0704C16.736 3 16.4238 2.8329 16.2383 2.5547L15.4258 1.3359C14.8694 0.501303 13.9327 0 12.9296 0H9.07037ZM8.23832 2.4453C8.42378 2.1671 8.73601 2 9.07037 2H12.9296C13.264 2 13.5762 2.1671 13.7617 2.4453L14.5742 3.6641C15.1306 4.4987 16.0673 5 17.0704 5H19C19.5523 5 20 5.44772 20 6V15C20 15.5523 19.5523 16 19 16H3C2.44772 16 2 15.5523 2 15V6C2 5.44772 2.44772 5 3 5H4.92963C5.93269 5 6.86939 4.4987 7.42578 3.6641L8.23832 2.4453ZM9 10C9 8.89543 9.89543 8 11 8C12.1046 8 13 8.89543 13 10C13 11.1046 12.1046 12 11 12C9.89543 12 9 11.1046 9 10ZM11 6C8.79086 6 7 7.79086 7 10C7 12.2091 8.79086 14 11 14C13.2091 14 15 12.2091 15 10C15 7.79086 13.2091 6 11 6Z" fill="#1BD15D"/>
</svg>
