<svg width="16" height="17" viewBox="0 0 16 17" fill="none" xmlns="http://www.w3.org/2000/svg">
<path d="M9.87818 8.55001L15.606 2.83472C15.8568 2.58386 15.9977 2.24361 15.9977 1.88883C15.9977 1.53406 15.8568 1.19381 15.606 0.942947C15.3552 0.692082 15.015 0.551147 14.6602 0.551147C14.3055 0.551147 13.9653 0.692082 13.7145 0.942947L8 6.67156L2.28552 0.942947C2.03469 0.692082 1.6945 0.551147 1.33977 0.551147C0.985044 0.551147 0.644846 0.692082 0.394017 0.942947C0.143188 1.19381 0.00227327 1.53406 0.00227327 1.88883C0.00227327 2.24361 0.143188 2.58386 0.394017 2.83472L6.12182 8.55001L0.394017 14.2653C0.269166 14.3891 0.17007 14.5365 0.102444 14.6988C0.0348177 14.8612 0 15.0353 0 15.2112C0 15.3871 0.0348177 15.5612 0.102444 15.7235C0.17007 15.8859 0.269166 16.0332 0.394017 16.1571C0.517848 16.2819 0.665174 16.3811 0.827496 16.4487C0.989818 16.5163 1.16392 16.5511 1.33977 16.5511C1.51562 16.5511 1.68972 16.5163 1.85204 16.4487C2.01437 16.3811 2.16169 16.2819 2.28552 16.1571L8 10.4285L13.7145 16.1571C13.8383 16.2819 13.9856 16.3811 14.148 16.4487C14.3103 16.5163 14.4844 16.5511 14.6602 16.5511C14.8361 16.5511 15.0102 16.5163 15.1725 16.4487C15.3348 16.3811 15.4822 16.2819 15.606 16.1571C15.7308 16.0332 15.8299 15.8859 15.8976 15.7235C15.9652 15.5612 16 15.3871 16 15.2112C16 15.0353 15.9652 14.8612 15.8976 14.6988C15.8299 14.5365 15.7308 14.3891 15.606 14.2653L9.87818 8.55001Z" fill="#5E6472"/>
</svg>
