<svg width="16" height="16" viewBox="0 0 16 16" fill="none" xmlns="http://www.w3.org/2000/svg">
<path fill-rule="evenodd" clip-rule="evenodd" d="M3.94179 2C3.56302 2 3.21675 2.214 3.04736 2.55279L2.61803 3.41145H6.82285V2H3.94179ZM8.82285 2V3.41145H13.0277L12.5984 2.55279C12.429 2.214 12.0827 2 11.704 2H8.82285ZM2 12.6458V5.41145H13.6458V12.6458C13.6458 13.198 13.198 13.6458 12.6458 13.6458H3C2.44772 13.6458 2 13.198 2 12.6458ZM1.25851 1.65836C1.76668 0.642008 2.80547 0 3.94179 0H11.704C12.8403 0 13.8791 0.642007 14.3872 1.65836L15.329 3.54193C15.5373 3.9585 15.6458 4.41784 15.6458 4.88357V12.6458C15.6458 14.3026 14.3026 15.6458 12.6458 15.6458H3C1.34315 15.6458 0 14.3026 0 12.6458V4.88357C0 4.41784 0.108435 3.9585 0.316718 3.54193L1.25851 1.65836Z" fill="#6F6F6F"/>
</svg>
