<svg width="16" height="16" viewBox="0 0 16 16" fill="none" xmlns="http://www.w3.org/2000/svg">
<path fill-rule="evenodd" clip-rule="evenodd" d="M7.10418 2.22557C7.47234 1.92481 8.00134 1.92481 8.3695 2.22557L13.1063 6.09525C13.3388 6.28517 13.4737 6.56948 13.4737 6.86968V12.5694C13.4737 13.1217 13.026 13.5694 12.4737 13.5694H3C2.44771 13.5694 2 13.1217 2 12.5694V6.86968C2 6.56948 2.13486 6.28517 2.36734 6.09525L7.10418 2.22557ZM9.63482 0.676705C8.53035 -0.225569 6.94333 -0.225568 5.83887 0.676706L1.10203 4.54638C0.404584 5.11615 0 5.96909 0 6.86968V12.5694C0 14.2263 1.34314 15.5694 3 15.5694H12.4737C14.1305 15.5694 15.4737 14.2263 15.4737 12.5694V6.86968C15.4737 5.96909 15.0691 5.11615 14.3717 4.54638L9.63482 0.676705ZM5.21054 10.0314C4.65826 10.0314 4.21054 10.4791 4.21054 11.0314C4.21054 11.5837 4.65826 12.0314 5.21054 12.0314H10.2632C10.8155 12.0314 11.2632 11.5837 11.2632 11.0314C11.2632 10.4791 10.8155 10.0314 10.2632 10.0314H5.21054Z" fill="#9B9B9B"/>
</svg>
