<svg width="17" height="10" viewBox="0 0 17 10" fill="none" xmlns="http://www.w3.org/2000/svg">
<path fill-rule="evenodd" clip-rule="evenodd" d="M3 0C1.34314 0 0 1.34315 0 3V6.27273C0 7.92958 1.34315 9.27273 3 9.27273H10.6364C12.2932 9.27273 13.6364 7.92958 13.6364 6.27273V3C13.6364 1.34314 12.2932 0 10.6364 0H3ZM2 3C2 2.44772 2.44772 2 3 2H10.6364C11.1886 2 11.6364 2.44772 11.6364 3V6.27273C11.6364 6.82501 11.1886 7.27273 10.6364 7.27273H3C2.44772 7.27273 2 6.82501 2 6.27273V3ZM16.5455 3.18182C16.5455 2.62953 16.0977 2.18182 15.5455 2.18182C14.9932 2.18182 14.5455 2.62953 14.5455 3.18182V6.09091C14.5455 6.64319 14.9932 7.09091 15.5455 7.09091C16.0977 7.09091 16.5455 6.64319 16.5455 6.09091V3.18182Z" fill="#6F6F6F"/>
</svg>
