<svg width="17" height="17" viewBox="0 0 17 17" fill="none" xmlns="http://www.w3.org/2000/svg">
<path fill-rule="evenodd" clip-rule="evenodd" d="M5.73282 0.0588286C6.25277 0.245042 6.52331 0.817497 6.3371 1.33744L4.9743 5.14263H11.3421L9.97929 1.33744C9.79308 0.817497 10.0636 0.245042 10.5836 0.0588286C11.1035 -0.127385 11.676 0.143158 11.8622 0.663103L13.4678 5.14638C15.1686 5.23068 16.472 6.72472 16.3014 8.43961L15.7785 13.6959C15.6258 15.2301 14.3351 16.3989 12.7932 16.3989H3.5232C1.98136 16.3989 0.690571 15.2301 0.537936 13.6959L0.0150256 8.43961C-0.155577 6.72473 1.14775 5.2307 2.84856 5.14638L4.45421 0.663103C4.64042 0.143158 5.21288 -0.127385 5.73282 0.0588286ZM12.7391 7.14263C12.7547 7.14299 12.7702 7.14299 12.7858 7.14263H13.3161C13.9075 7.14263 14.3698 7.65311 14.3112 8.24162L13.7883 13.4979C13.7374 14.0093 13.3072 14.3989 12.7932 14.3989H3.5232C3.00925 14.3989 2.57899 14.0093 2.52811 13.4979L2.0052 8.24162C1.94665 7.65311 2.40887 7.14263 3.00029 7.14263H3.53061C3.54619 7.14299 3.56174 7.14299 3.57724 7.14263H12.7391Z" fill="#9B9B9B"/>
</svg>
