<svg width="18" height="18" viewBox="0 0 18 18" fill="none" xmlns="http://www.w3.org/2000/svg">
<path d="M11.6243 14.8318C11.4776 14.9418 11.364 15.0901 11.2959 15.2604L10.8514 16.3714C10.6996 16.751 10.3319 17 9.92297 17H8.07703C7.66813 17 7.30042 16.751 7.14856 16.3714L6.70414 15.2604C6.63603 15.0901 6.52239 14.9418 6.37567 14.8318L5.41916 14.1144C5.15665 13.9175 4.81424 13.8619 4.50293 13.9657L3.42279 14.3257C2.95068 14.4831 2.43469 14.2694 2.21213 13.8243L1.41413 12.2283C1.18045 11.7609 1.34599 11.1924 1.79407 10.9236L2.5145 10.4913C2.8157 10.3106 3 9.98507 3 9.63381V8.68063C3 8.37684 2.86191 8.08953 2.6247 7.89976L1.63127 7.10501C1.26306 6.81045 1.15066 6.29869 1.36153 5.87693L2.21213 4.17573C2.43469 3.73062 2.95068 3.51689 3.42279 3.67426L4.60704 4.06901C4.85865 4.15288 5.13327 4.13337 5.37048 4.01476L6.22952 3.58524C6.46673 3.46663 6.64712 3.25865 6.73099 3.00704L7.17208 1.68377C7.30819 1.27543 7.69033 1 8.12076 1H9.87924C10.3097 1 10.6918 1.27543 10.8279 1.68377L11.269 3.00704C11.3529 3.25865 11.5333 3.46663 11.7705 3.58524L12.6295 4.01476C12.8667 4.13337 13.1414 4.15288 13.393 4.06901L14.5772 3.67426C15.0493 3.51689 15.5653 3.73062 15.7879 4.17573L16.6385 5.87693C16.8493 6.29869 16.7369 6.81045 16.3687 7.10501L15.3753 7.89976C15.1381 8.08953 15 8.37684 15 8.68062V9.31937C15 9.62316 15.1381 9.91047 15.3753 10.1002L16.3687 10.895C16.7369 11.1896 16.8493 11.7013 16.6385 12.1231L15.7879 13.8243C15.5653 14.2694 15.0493 14.4831 14.5772 14.3257L13.4971 13.9657C13.1858 13.8619 12.8434 13.9175 12.5808 14.1144L11.6243 14.8318Z" stroke="#9B9B9B" stroke-width="2"/>
<path d="M9.00001 11.4C10.3255 11.4 11.4 10.3255 11.4 9C11.4 7.67452 10.3255 6.6 9.00001 6.6C7.67452 6.6 6.60001 7.67452 6.60001 9C6.60001 10.3255 7.67452 11.4 9.00001 11.4Z" fill="#9B9B9B"/>
</svg>
