<svg width="17" height="17" viewBox="0 0 17 17" fill="none" xmlns="http://www.w3.org/2000/svg">
<path fill-rule="evenodd" clip-rule="evenodd" d="M4.65761 0C2.38903 0 0.814864 1.52536 0.38696 1.98297C0.116022 2.27272 0 2.63665 0 2.97564V13.9767C0 14.7315 0.527735 15.2102 0.978255 15.4076C1.42719 15.6044 2.07134 15.653 2.617 15.2774C3.15405 14.9076 3.85551 14.5854 4.65761 14.5854C5.77961 14.5854 6.69855 15.2186 7.21425 15.6862C7.28258 15.7482 7.35527 15.8032 7.43134 15.8514C7.59926 16.1678 7.93208 16.3833 8.31522 16.3833C8.69836 16.3833 9.03117 16.1678 9.19909 15.8514C9.27517 15.8032 9.34785 15.7482 9.41618 15.6862C9.93188 15.2186 10.8508 14.5854 11.9728 14.5854C12.7749 14.5854 13.4764 14.9076 14.0134 15.2774C14.5591 15.653 15.2032 15.6044 15.6522 15.4076C16.1027 15.2102 16.6304 14.7315 16.6304 13.9767V2.97565C16.6304 2.63665 16.5144 2.27272 16.2435 1.98297C15.8156 1.52536 14.2414 0 11.9728 0C10.3202 0 9.04054 0.810429 8.31522 1.40939C7.58989 0.810429 6.31025 0 4.65761 0ZM9.31522 13.308C10.0184 12.9143 10.9199 12.5854 11.9728 12.5854C13.0304 12.5854 13.9337 12.9182 14.6304 13.308V3.195C14.1784 2.76034 13.2016 2 11.9728 2C10.8508 2 9.93188 2.63321 9.41618 3.10081C9.38349 3.13045 9.3498 3.15852 9.31522 3.18502V13.308ZM7.31522 3.18502C7.28063 3.15852 7.24694 3.13045 7.21425 3.10081C6.69855 2.63321 5.77961 2 4.65761 2C3.42884 2 2.452 2.76034 2 3.195V13.308C2.69671 12.9182 3.6 12.5854 4.65761 12.5854C5.71051 12.5854 6.612 12.9143 7.31522 13.308V3.18502Z" fill="#9B9B9B"/>
</svg>
